<?xml version="1.0" encoding="utf-8"?>
<!-- Generator: Adobe Illustrator 23.0.6, SVG Export Plug-In . SVG Version: 6.00 Build 0)  -->
<svg version="1.1" id="Layer_1" xmlns="http://www.w3.org/2000/svg" xmlns:xlink="http://www.w3.org/1999/xlink" x="0px" y="0px"
	 viewBox="0 0 512 512" style="enable-background:new 0 0 512 512;" xml:space="preserve">
<style type="text/css">
	.st0{fill:#2BC8EC;}
</style>
<g>
	<path class="st0" d="M254.13,511.4c-80.19,0-160.39,0-240.58-0.01c-6.5,0-8.85-2.42-7.62-7.67c0.13-0.55,0.21-1.36,0.58-1.56
		c5.73-3.14,2.15-6.18-0.03-9.25c-4.78-6.71-6.33-14.57-6.34-22.39C-0.02,327.56-0.06,184.6,0.11,41.64
		C0.14,21.75,11.07,6.33,30.03,1.26c2.53-0.68,4.97-0.69,7.46-0.69c135.82-0.04,271.65-0.04,407.47-0.05
		c9.93,0,19.85-0.03,29.78-0.02c19.26,0.02,37.21,17.69,37.23,36.86c0.05,87.63,0.04,175.26,0.04,262.89
		c0,57.25-0.03,114.51-0.01,171.76c0,9.15-2.88,17.32-8.19,24.62c-1.43,1.96-3.1,3.03-0.17,5.26c1.59,1.21,2.18,3.89,0.72,5.86
		c-1.6,2.17-3.49,3.79-6.74,3.76c-18.29-0.17-36.59-0.06-54.88-0.06c-62.87,0-125.74,0-188.61,0
		C254.13,511.43,254.13,511.42,254.13,511.4z M375.6,366.65c1.65-1.52,2.79-2.5,3.86-3.56c10.08-10.02,20.14-20.06,30.21-30.1
		c0.83-0.82,1.64-1.66,2.49-2.46c3.25-3.06,7.2-4.12,10.21-0.6c2.69,3.16,2.14,7.05-1.16,10.32c-13.28,13.15-26.4,26.46-39.71,39.58
		c-2.37,2.33-3.57,4.59-3.56,8.05c0.14,32.9,0.06,65.79,0.11,98.69c0.02,11.97,0.1,11.94,11.88,11.94c28.24-0.01,56.48,0,84.72,0.02
		c2.72,0,5.31-0.1,7.88-1.41c11.12-5.66,17.17-14,17.15-27.09c-0.16-142.96-0.17-285.91-0.01-428.87
		c0.02-16.5-11.64-28.78-28.61-28.8c-113.25-0.11-226.5-0.03-339.75-0.16c-4.61-0.01-5.82,1.2-5.81,5.8
		c0.13,75.31,0.13,150.61-0.03,225.92c-0.01,4.61,1.25,5.77,5.8,5.74c33.69-0.2,67.38-0.09,101.08-0.14
		c21.84-0.03,42.51,4.4,62.42,13.8c36.88,17.41,61.56,45.36,75.32,83.46C372.36,353.09,373.95,359.56,375.6,366.65z M112.7,363.65
		c0-11.83,0-21.75,0-31.68c-0.01-104.57-0.06-209.15,0.08-313.72c0.01-4.99-1.5-6.09-6.16-6.04c-21.2,0.23-42.42,0.3-63.62,0.05
		c-16.26-0.19-29.83,13.06-29.77,29.89c0.31,89.36,0.12,178.72,0.13,268.07c0,53.54,0.14,107.08,0,160.62
		c-0.04,17.02,14.79,28.5,28.07,27.94c21.77-0.93,43.61-0.35,65.42-0.17c4.27,0.04,6.02-0.65,5.98-5.58
		c-0.24-35.44-0.16-70.88-0.07-106.32c0.01-3.15-0.86-5.41-3.12-7.64c-12.77-12.57-25.38-25.29-38.05-37.95
		c-1.51-1.5-3.03-2.95-3.86-5c-1.32-3.23-1.05-6.22,1.86-8.22c2.78-1.91,5.74-2,8.34,0.83c2.23,2.44,4.67,4.69,7,7.03
		C93.8,344.67,102.68,353.59,112.7,363.65z M188.27,262.43c-18.89,0-37.78,0.16-56.66-0.11c-4.71-0.07-6.17,1.15-6.14,5.99
		c0.21,34.63,0.16,69.27,0.09,103.91c-0.01,2.71,0.6,4.8,2.56,6.75c38.31,38.24,76.59,76.51,114.79,114.85
		c2.28,2.29,3.58,2.51,5.99,0.09c37.38-37.52,74.85-74.97,112.37-112.35c2.34-2.33,3.17-4.74,2.6-7.81
		c-1.62-8.69-3.63-17.29-6.83-25.56c-8.52-21.98-21.25-40.88-39.73-55.89c-22.2-18.03-47.42-28.36-75.9-29.73
		C223.74,261.73,205.99,262.42,188.27,262.43z M225.76,498.47c-33.19-33.21-66.97-67.01-100.11-100.16c0,7.34,0,16.09,0,24.84
		c0.01,23.53,0.02,47.06,0.01,70.59c0,2.6-0.36,4.84,3.69,4.82C162.07,498.41,194.79,498.47,225.76,498.47z M365.17,398.2
		c-33.51,33.39-67.02,66.78-100.58,100.23c0.42,0.02,1.13,0.1,1.84,0.1c31.34,0,62.68-0.07,94.02,0.09c3.94,0.02,4.83-1.25,4.8-4.95
		c-0.16-21.61-0.08-43.22-0.08-64.82C365.17,418.43,365.17,408.02,365.17,398.2z"/>
	<path class="st0" d="M431.42,37.96c18.43-1.19,34.87,13.67,35.2,34.24c0.31,19.32-15.08,34.3-33.29,35.04
		c-23.05,0.94-35.95-17.4-36.83-32.59C395.21,52.63,413.9,36.26,431.42,37.96z"/>
</g>
</svg>
